<svg width="512" version="1.0" xmlns="http://www.w3.org/2000/svg" height="512" xmlns:algsvg="http://dtd.allegorithmic.com/algsvg.dtd" algsvg:version="1.0">
 <path fill="rgb(127,127,127)" d="M0.01627,0.327598 L0.01627,0.878041 L0.075571,0.770582 L0.075457,0.684515 L0.082065,0.572625 L0.108193,0.501761 L0.159138,0.456137 L0.165776,0.440687 L0.228672,0.426089 L0.332322,0.443841 L0.334384,0.394192 L0.351612,0.402435 L0.389606,0.347495 L0.365128,0.28708 L0.374781,0.186864 L0.332873,0.167004 L0.225205,0.082773 L0.181436,0.025161 L0.118063,0.009639 L0.021397,0.023817 L0.022094,0.045058 L0.103433,0.082258 L0.144063,0.118269 L0.163909,0.187888 L0.158883,0.235903 L0.138967,0.25859 L0.118052,0.280637 L0.080264,0.307761 L0.081792,0.319277 L0.122319,0.335867 L0.149178,0.343223 L0.173579,0.360237 L0.216986,0.409292 L0.190213,0.409347 L0.160671,0.406444 L0.138047,0.39426 L0.121067,0.373682 L0.097487,0.371196 L0.103283,0.383117 L0.082824,0.36402 L0.051518,0.319754 L0.043786,0.315951 L0.01627,0.327598 Z" transform="matrix(512,0,0,-512,0,512)"/>
 <path fill="rgb(127,127,127)" d="M0.093768,0.927075 L0.095694,0.799885 L0.09684,0.683532 L0.105446,0.633801 L0.179627,0.611061 L0.271158,0.605373 L0.382991,0.614278 L0.505195,0.639238 L0.630361,0.698219 L0.7658,0.725721 L0.824746,0.725505 L0.903063,0.720072 L0.910207,0.721288 L0.905001,0.731936 L0.828641,0.761406 L0.763597,0.767692 L0.796495,0.789033 L0.885783,0.764832 L0.971146,0.764565 L0.97434,0.775731 L0.88759,0.81922 L0.829334,0.849354 L0.880696,0.85268 L0.938281,0.862575 L0.93324,0.876684 L0.882051,0.907812 L0.788483,0.918842 L0.860766,0.938266 L0.935217,0.944539 L0.932105,0.961139 L0.854628,0.976339 L0.769257,0.977178 L0.630112,0.986422 L0.493998,0.982815 L0.368525,0.978618 L0.27866,0.977607 L0.17848,0.977245 L0.099585,0.983752 L0.093768,0.927075 Z" transform="matrix(512,0,0,-512,0,512)"/>
 <path fill="rgb(127,127,127)" d="M0.151529,0.52522 L0.151711,0.494191 L0.156938,0.494341 L0.167828,0.52015 L0.181527,0.528601 L0.202395,0.528183 L0.211906,0.519827 L0.216152,0.511645 L0.218438,0.503451 L0.220872,0.489328 L0.22304,0.488781 L0.226661,0.500619 L0.230844,0.505495 L0.236405,0.51041 L0.253215,0.514527 L0.250997,0.506962 L0.247289,0.500037 L0.242855,0.495726 L0.237193,0.489321 L0.240746,0.485739 L0.235826,0.481088 L0.222036,0.471464 L0.221326,0.469792 L0.225265,0.460831 L0.23849,0.461786 L0.292767,0.465433 L0.33095,0.494831 L0.359604,0.543524 L0.361489,0.548081 L0.34445,0.552643 L0.344513,0.548201 L0.330761,0.559338 L0.319779,0.570228 L0.301183,0.571419 L0.281866,0.561607 L0.263806,0.552486 L0.243826,0.567031 L0.215981,0.587301 L0.207262,0.57775 L0.173215,0.552441 L0.15413,0.544198 L0.151529,0.52522 Z" transform="matrix(512,0,0,-512,0,512)"/>
 <path fill="rgb(127,127,127)" d="M0.230113,0.047852 L0.231849,0.042948 L0.231606,0.035749 L0.230124,0.028736 L0.235537,0.023663 L0.287005,0.022815 L0.321815,0.023373 L0.373038,0.023425 L0.429938,0.028601 L0.510985,0.038396 L0.636545,0.038189 L0.67347,0.022259 L0.709979,0.031475 L0.714264,0.023645 L0.751084,0.043941 L0.77949,0.064964 L0.815765,0.06542 L0.893413,0.171614 L0.972471,0.25103 L0.978051,0.283748 L0.987169,0.292248 L0.974802,0.316906 L0.965328,0.34505 L0.955874,0.34288 L0.969484,0.372408 L0.921233,0.363269 L0.861768,0.317906 L0.815734,0.30702 L0.778311,0.33486 L0.769329,0.370381 L0.764314,0.428047 L0.769555,0.445318 L0.7876,0.494551 L0.784196,0.579615 L0.819402,0.558467 L0.831577,0.569964 L0.888117,0.57755 L0.888545,0.62304 L0.927593,0.665641 L0.954772,0.702359 L0.94724,0.709582 L0.914103,0.695442 L0.762864,0.677199 L0.590887,0.613062 L0.559853,0.584588 L0.525275,0.543149 L0.50773,0.485333 L0.503388,0.468334 L0.498234,0.413523 L0.471854,0.35511 L0.416954,0.206659 L0.358185,0.152877 L0.325807,0.120295 L0.291536,0.092969 L0.266378,0.073486 L0.230113,0.047852 Z" transform="matrix(512,0,0,-512,0,512)"/>
 <path fill="rgb(127,127,127)" d="M0.383801,0.572483 L0.386642,0.546357 L0.387198,0.524799 L0.390603,0.492979 L0.398027,0.454484 L0.411582,0.413921 L0.416322,0.387813 L0.415935,0.365716 L0.419282,0.365432 L0.423993,0.387443 L0.42511,0.410674 L0.428065,0.382607 L0.426914,0.367236 L0.429557,0.3668 L0.432105,0.383478 L0.432743,0.407426 L0.43666,0.381892 L0.435298,0.355667 L0.437703,0.355406 L0.442824,0.380097 L0.443425,0.407573 L0.441199,0.418354 L0.445413,0.401433 L0.452491,0.379667 L0.454793,0.379679 L0.456413,0.380969 L0.455458,0.404333 L0.45106,0.419913 L0.463678,0.455339 L0.468045,0.49027 L0.472098,0.52221 L0.469619,0.550598 L0.470424,0.574166 L0.460948,0.593485 L0.452985,0.593267 L0.396182,0.589997 L0.391554,0.593245 L0.383801,0.572483 Z" transform="matrix(512,0,0,-512,0,512)"/>
</svg>
