<svg width="512" version="1.0" xmlns="http://www.w3.org/2000/svg" height="512" xmlns:algsvg="http://dtd.allegorithmic.com/algsvg.dtd" algsvg:version="1.0">
 <path fill="rgb(255,0,255)" d="M0.00195,0.78304 L0.00237,0.76768 L0.00409,0.74814 L0.01132,0.72768 L0.0265,0.7026 L0.04599,0.67161 L0.05424,0.63867 L0.06205,0.60277 L0.06184,0.5675 L0.05998,0.5336 L0.06052,0.49794 L0.05952,0.4572 L0.05673,0.41504 L0.06119,0.37526 L0.06705,0.33957 L0.05611,0.33281 L0.05723,0.31276 L0.05569,0.27681 L0.04971,0.23538 L0.04682,0.19269 L0.03137,0.1508 L0.01653,0.11345 L0.00413,0.08051 L0.02097,0.0758 L0.03377,0.07152 L0.0455,0.06484 L0.05509,0.05792 L0.06195,0.05185 L0.06714,0.04557 L0.07267,0.03845 L0.07641,0.03147 L0.08053,0.02294 L0.11136,0.03823 L0.14662,0.05052 L0.17968,0.0485 L0.2122,0.04303 L0.24389,0.0235 L0.27067,0.00195 L0.27653,0.00939 L0.28156,0.01551 L0.28854,0.02113 L0.29496,0.0262 L0.30294,0.03049 L0.31374,0.03495 L0.32657,0.03843 L0.33986,0.03978 L0.35709,0.03972 L0.35311,0.07533 L0.34689,0.11614 L0.34022,0.15878 L0.34748,0.20103 L0.35124,0.24249 L0.35774,0.27746 L0.36378,0.29622 L0.35484,0.30524 L0.36897,0.33945 L0.382,0.3767 L0.38972,0.41825 L0.39804,0.4578 L0.40688,0.49222 L0.4131,0.52543 L0.4213,0.55984 L0.43738,0.5925 L0.45331,0.62256 L0.47991,0.64742 L0.50056,0.66905 L0.51224,0.68753 L0.5185,0.70583 L0.52252,0.72059 L0.52468,0.73527 L0.52495,0.74783 L0.52394,0.75728 L0.52155,0.76526 L0.51801,0.77357 L0.51328,0.78002 L0.50736,0.78745 L0.48103,0.78457 L0.45456,0.78202 L0.42629,0.78221 L0.39895,0.78374 L0.37609,0.77998 L0.36089,0.77317 L0.35417,0.76602 L0.33604,0.76411 L0.3118,0.76359 L0.28573,0.76475 L0.2642,0.76725 L0.24272,0.76999 L0.21702,0.77508 L0.1937,0.78147 L0.17649,0.78783 L0.17123,0.79657 L0.15835,0.80579 L0.13701,0.81514 L0.10999,0.8203 L0.08254,0.82675 L0.05734,0.83537 L0.03243,0.84451 L0.02491,0.83857 L0.01887,0.83344 L0.01327,0.82628 L0.00913,0.81906 L0.00596,0.81011 L0.0033,0.79783 L0.00195,0.78304 Z" transform="matrix(512,0,0,-512,0,512)"/>
 <path fill="rgb(255,0,255)" d="M0.03545,0.95537 L0.03563,0.96095 L0.0355,0.96474 L0.03817,0.96688 L0.04228,0.96964 L0.04764,0.97255 L0.05474,0.97176 L0.06008,0.97068 L0.06102,0.96691 L0.06242,0.96207 L0.06204,0.95624 L0.06159,0.95143 L0.06041,0.94789 L0.05283,0.94634 L0.0444,0.94619 L0.03761,0.94942 L0.03545,0.95537 Z" transform="matrix(512,0,0,-512,0,512)"/>
 <path fill="rgb(255,0,255)" d="M0.1912,0.81064 L0.19606,0.83371 L0.21622,0.85274 L0.22713,0.87404 L0.23224,0.89925 L0.23536,0.92207 L0.21884,0.94679 L0.21049,0.9483 L0.20975,0.97609 L0.21445,0.99035 L0.22467,0.9957 L0.23654,0.9962 L0.25051,0.99804 L0.27484,0.98475 L0.27849,0.99189 L0.29935,0.97124 L0.32381,0.96895 L0.34849,0.96434 L0.37055,0.96955 L0.393,0.98526 L0.41764,0.98226 L0.42304,0.98731 L0.44444,0.9918 L0.47699,0.99183 L0.52263,0.98295 L0.55658,0.98111 L0.56001,0.99007 L0.57958,0.99 L0.5814,0.98268 L0.56717,0.97134 L0.55153,0.95399 L0.54123,0.9348 L0.53593,0.91312 L0.53898,0.88824 L0.54451,0.85989 L0.54586,0.83083 L0.53067,0.81597 L0.5126,0.80478 L0.483,0.81284 L0.45482,0.82784 L0.43005,0.84178 L0.40695,0.84786 L0.38511,0.84776 L0.36546,0.84047 L0.34985,0.83839 L0.34633,0.83105 L0.32764,0.83209 L0.3233,0.82398 L0.29375,0.8298 L0.24853,0.82325 L0.21637,0.81275 L0.19749,0.81002 L0.1912,0.81064 Z" transform="matrix(512,0,0,-512,0,512)"/>
 <path fill="rgb(255,0,255)" d="M0.36258,0.19474 L0.3644,0.18426 L0.37212,0.18045 L0.3807,0.17584 L0.38521,0.15824 L0.39674,0.13085 L0.41725,0.10312 L0.44442,0.07959 L0.47577,0.06079 L0.51046,0.04963 L0.54241,0.04518 L0.56397,0.0405 L0.57077,0.04018 L0.57352,0.03438 L0.58995,0.01816 L0.62522,0.01241 L0.66492,0.01945 L0.70268,0.03307 L0.73629,0.05145 L0.76671,0.07173 L0.79194,0.09045 L0.8055,0.10276 L0.80371,0.11236 L0.80039,0.12107 L0.79148,0.1281 L0.78821,0.14773 L0.77546,0.1671 L0.75733,0.18796 L0.73552,0.2092 L0.71106,0.22976 L0.68428,0.24891 L0.6548,0.26511 L0.62328,0.27479 L0.5914,0.26737 L0.56245,0.28255 L0.52862,0.2826 L0.49585,0.27357 L0.46556,0.26162 L0.43743,0.24907 L0.4118,0.236 L0.39092,0.22107 L0.37621,0.20587 L0.36258,0.19474 Z" transform="matrix(512,0,0,-512,0,512)"/>
 <path fill="rgb(255,0,255)" d="M0.41261,0.45243 L0.4289,0.44666 L0.44111,0.43544 L0.45257,0.42123 L0.46763,0.40221 L0.49187,0.37552 L0.52945,0.3606 L0.57517,0.34636 L0.62815,0.31934 L0.68054,0.28659 L0.73404,0.24799 L0.77946,0.20971 L0.82175,0.18351 L0.86313,0.17585 L0.90112,0.18199 L0.9222,0.20571 L0.94856,0.22868 L0.96638,0.22251 L0.98868,0.24025 L0.99759,0.2762 L0.99427,0.31669 L0.97915,0.36057 L0.96289,0.41477 L0.9484,0.48026 L0.93863,0.54228 L0.93111,0.59873 L0.91881,0.63809 L0.9166,0.67007 L0.94473,0.69276 L0.96357,0.71052 L0.97425,0.72659 L0.98313,0.74164 L0.9935,0.75679 L0.98086,0.77605 L0.97028,0.79425 L0.9617,0.81494 L0.95902,0.8415 L0.95778,0.86345 L0.95646,0.8771 L0.94251,0.8818 L0.92377,0.89112 L0.90676,0.8948 L0.88831,0.8985 L0.86941,0.89831 L0.84929,0.8958 L0.82918,0.89478 L0.80942,0.89484 L0.79216,0.89852 L0.78802,0.87631 L0.77691,0.89178 L0.76978,0.90878 L0.75747,0.923 L0.74631,0.9372 L0.7379,0.95282 L0.72686,0.96483 L0.71343,0.97339 L0.69971,0.97883 L0.68216,0.9841 L0.6818,0.97013 L0.67187,0.96156 L0.65818,0.94534 L0.6409,0.92431 L0.62518,0.90935 L0.60834,0.89931 L0.58641,0.89817 L0.5959,0.8784 L0.61727,0.85418 L0.64242,0.81963 L0.67061,0.79454 L0.69048,0.77268 L0.6691,0.72943 L0.63286,0.69622 L0.60915,0.65777 L0.57026,0.63704 L0.54318,0.61102 L0.52427,0.58981 L0.50424,0.57267 L0.48278,0.54565 L0.46203,0.50978 L0.43054,0.47714 L0.41261,0.45243 Z" transform="matrix(512,0,0,-512,0,512)"/>
</svg>
