<svg width="512" version="1.0" xmlns="http://www.w3.org/2000/svg" height="512" xmlns:algsvg="http://dtd.allegorithmic.com/algsvg.dtd" algsvg:version="1.0">
 <path fill="rgb(255,0,0)" d="M0.049728,0.600843 L0.009198,0.680837 L0.042369,0.766857 L0.094665,0.853567 L0.169076,0.86921 L0.188146,0.88183 L0.178853,0.85209 L0.219486,0.925951 L0.242494,0.950685 L0.307125,0.951156 L0.368794,0.962105 L0.439983,0.981541 L0.493032,0.981359 L0.558872,0.975139 L0.616423,0.961401 L0.714984,0.947637 L0.761015,0.933075 L0.809665,0.847642 L0.805243,0.739042 L0.771964,0.709995 L0.722509,0.656921 L0.667484,0.592606 L0.618062,0.537722 L0.523169,0.496538 L0.509181,0.514418 L0.46151,0.459752 L0.431712,0.424402 L0.395237,0.449475 L0.345325,0.479404 L0.276424,0.505237 L0.196864,0.515102 L0.156552,0.509345 L0.102597,0.482373 L0.049728,0.600843 Z" transform="matrix(512,0,0,-512,0,512)"/>
 <path fill="rgb(255,66,0)" d="M0.010551,0.136218 L0.014394,0.172775 L0.132607,0.236694 L0.225461,0.277843 L0.311165,0.335381 L0.405977,0.372908 L0.514899,0.310959 L0.572838,0.271383 L0.642462,0.237628 L0.700455,0.185251 L0.707209,0.20152 L0.730129,0.194723 L0.694393,0.092348 L0.65714,0.021839 L0.638056,0.02397 L0.631882,0.007425 L0.567643,0.021072 L0.506238,0.026305 L0.442282,0.022542 L0.405541,0.016643 L0.348793,0.024176 L0.274681,0.029857 L0.217562,0.028693 L0.150879,0.013352 L0.098557,0.066707 L0.010551,0.136218 Z" transform="matrix(512,0,0,-512,0,512)"/>
 <path fill="rgb(255,133,0)" d="M0.018784,0.324597 L0.019063,0.430714 L0.047237,0.430654 L0.047312,0.45937 L0.217341,0.459077 L0.21727,0.430335 L0.24629,0.430146 L0.24596,0.324038 L0.217008,0.32412 L0.216937,0.29513 L0.046928,0.295529 L0.046941,0.32453 L0.018784,0.324597 ZM0.164485,0.368894 L0.164526,0.38591 L0.100951,0.386067 L0.100909,0.369051 L0.164485,0.368894 Z" transform="matrix(512,0,0,-512,0,512)"/>
 <path fill="rgb(255,200,0)" d="M0.018893,0.324588 L0.019142,0.43083 L0.047414,0.430751 L0.047423,0.459509 L0.217341,0.459077 L0.21727,0.430336 L0.246228,0.430225 L0.246023,0.324026 L0.217008,0.324102 L0.216937,0.29507 L0.047097,0.295483 L0.047219,0.324518 L0.018893,0.324588 ZM0.164487,0.368894 L0.164528,0.385908 L0.101049,0.386065 L0.101007,0.369051 L0.164487,0.368894 Z" transform="matrix(512,0,0,-512,0,512)"/>
 <path fill="rgb(244,255,0)" d="M0.018927,0.324689 L0.019216,0.430965 L0.047532,0.430752 L0.047505,0.459443 L0.217341,0.459077 L0.217271,0.430409 L0.246138,0.430383 L0.245996,0.324125 L0.217009,0.324189 L0.216937,0.295182 L0.047003,0.295588 L0.047219,0.324608 L0.018927,0.324689 ZM0.164488,0.3689 L0.164533,0.38583 L0.101069,0.386084 L0.101027,0.369057 L0.164488,0.3689 Z" transform="matrix(512,0,0,-512,0,512)"/>
 <path fill="rgb(178,255,0)" d="M0.018932,0.324618 L0.019233,0.430838 L0.047627,0.430676 L0.047706,0.459472 L0.217341,0.459077 L0.21727,0.430357 L0.246257,0.430365 L0.24603,0.32406 L0.217008,0.324127 L0.216937,0.29506 L0.047177,0.295455 L0.047241,0.324543 L0.018932,0.324618 ZM0.164489,0.368896 L0.16453,0.385915 L0.101129,0.386071 L0.101087,0.369052 L0.164489,0.368896 Z" transform="matrix(512,0,0,-512,0,512)"/>
 <path fill="rgb(111,255,0)" d="M0.018945,0.324627 L0.019227,0.430748 L0.047655,0.430682 L0.047657,0.459527 L0.217341,0.459077 L0.21727,0.430257 L0.246332,0.430232 L0.246116,0.324065 L0.217008,0.324135 L0.216937,0.295077 L0.047124,0.295514 L0.047328,0.324558 L0.018945,0.324627 ZM0.164489,0.368896 L0.164531,0.385915 L0.101158,0.386071 L0.101116,0.369052 L0.164489,0.368896 Z" transform="matrix(512,0,0,-512,0,512)"/>
 <path fill="rgb(44,255,0)" d="M0.018959,0.324599 L0.019213,0.430833 L0.047565,0.430758 L0.047567,0.459525 L0.217341,0.459077 L0.21727,0.430321 L0.246249,0.430208 L0.246045,0.324039 L0.217008,0.324116 L0.216937,0.295093 L0.047227,0.295489 L0.047342,0.324529 L0.018959,0.324599 ZM0.164488,0.368894 L0.16453,0.38591 L0.101113,0.386067 L0.101071,0.369051 L0.164488,0.368894 Z" transform="matrix(512,0,0,-512,0,512)"/>
 <path fill="rgb(0,255,22)" d="M0.019006,0.324737 L0.019264,0.430817 L0.047653,0.430796 L0.047682,0.459582 L0.217341,0.459077 L0.21727,0.430285 L0.246244,0.430179 L0.246074,0.324184 L0.217009,0.32426 L0.216937,0.295287 L0.0473,0.295672 L0.047432,0.324672 L0.019006,0.324737 ZM0.164489,0.368903 L0.164531,0.385939 L0.101165,0.386095 L0.101123,0.36906 L0.164489,0.368903 Z" transform="matrix(512,0,0,-512,0,512)"/>
 <path fill="rgb(0,255,89)" d="M0.029395,0.918852 L0.031445,0.903519 L0.035258,0.891029 L0.040796,0.891701 L0.056048,0.890251 L0.066199,0.889489 L0.073252,0.886576 L0.077506,0.891145 L0.090399,0.894584 L0.102091,0.89604 L0.111477,0.896106 L0.114663,0.898764 L0.116717,0.907806 L0.129007,0.908186 L0.142499,0.9028 L0.154588,0.913727 L0.168468,0.923194 L0.173281,0.942445 L0.159325,0.976471 L0.145388,0.968105 L0.132281,0.964987 L0.107784,0.964516 L0.087781,0.969207 L0.07354,0.975908 L0.062704,0.982858 L0.061552,0.969505 L0.052355,0.950427 L0.057702,0.948226 L0.047381,0.943776 L0.045271,0.936314 L0.04106,0.927195 L0.03486,0.920199 L0.029395,0.918852 Z" transform="matrix(512,0,0,-512,0,512)"/>
 <path fill="rgb(0,255,155)" d="M0.281597,0.391388 L0.281598,0.434308 L0.350192,0.434302 L0.350156,0.391389 L0.281597,0.391388 ZM0.339788,0.424121 L0.292117,0.424147 L0.292108,0.401406 L0.339786,0.401397 L0.339788,0.424121 Z" transform="matrix(512,0,0,-512,0,512)"/>
 <path fill="rgb(0,255,222)" d="M0.281638,0.434281 L0.281641,0.391421 L0.350171,0.391413 L0.350134,0.434249 L0.281638,0.434281 ZM0.339762,0.424098 L0.339762,0.401414 L0.292141,0.401425 L0.292137,0.424111 L0.339762,0.424098 Z" transform="matrix(512,0,0,-512,0,512)"/>
 <path fill="rgb(0,222,255)" d="M0.281917,0.391592 L0.281917,0.434102 L0.349882,0.434098 L0.349826,0.39159 L0.281917,0.391592 ZM0.339567,0.423994 L0.292338,0.42401 L0.292339,0.401512 L0.339565,0.401502 L0.339567,0.423994 Z" transform="matrix(512,0,0,-512,0,512)"/>
 <path fill="rgb(0,155,255)" d="M0.282119,0.391717 L0.28212,0.433982 L0.349641,0.433963 L0.349605,0.391719 L0.282119,0.391717 ZM0.339416,0.423947 L0.292491,0.42397 L0.292479,0.40158 L0.339414,0.401575 L0.339416,0.423947 Z" transform="matrix(512,0,0,-512,0,512)"/>
 <path fill="rgb(0,89,255)" d="M0.282128,0.434016 L0.282131,0.39174 L0.349584,0.391733 L0.34958,0.433997 L0.282128,0.434016 ZM0.339397,0.423938 L0.339395,0.401561 L0.292496,0.401571 L0.292501,0.423945 L0.339397,0.423938 Z" transform="matrix(512,0,0,-512,0,512)"/>
 <path fill="rgb(0,22,255)" d="M0.282948,0.433414 L0.282951,0.392243 L0.348769,0.392243 L0.348773,0.433435 L0.282948,0.433414 ZM0.338827,0.423662 L0.338825,0.401865 L0.293062,0.40186 L0.293063,0.423639 L0.338827,0.423662 Z" transform="matrix(512,0,0,-512,0,512)"/>
 <path fill="rgb(44,0,255)" d="M0.28352,0.392596 L0.283521,0.433059 L0.348224,0.433023 L0.348183,0.392602 L0.28352,0.392596 ZM0.338435,0.42341 L0.293466,0.423466 L0.29346,0.402063 L0.338432,0.402055 L0.338435,0.42341 Z" transform="matrix(512,0,0,-512,0,512)"/>
 <path fill="rgb(111,0,255)" d="M0.46144,0.384896 L0.466707,0.371382 L0.472396,0.362324 L0.4779,0.375898 L0.488151,0.366764 L0.494249,0.366439 L0.500366,0.36634 L0.514431,0.360977 L0.536361,0.351667 L0.552708,0.355082 L0.565811,0.353302 L0.570977,0.36883 L0.593019,0.379236 L0.606458,0.383508 L0.611509,0.380038 L0.628475,0.376844 L0.623024,0.416799 L0.615641,0.444358 L0.605698,0.466815 L0.598427,0.456398 L0.588956,0.450278 L0.57537,0.447911 L0.5591,0.451373 L0.545883,0.458296 L0.537457,0.467208 L0.530298,0.461443 L0.515913,0.452398 L0.49716,0.448509 L0.47743,0.450652 L0.48336,0.409261 L0.475875,0.40005 L0.472454,0.393249 L0.466954,0.387811 L0.46144,0.384896 Z" transform="matrix(512,0,0,-512,0,512)"/>
 <path fill="rgb(178,0,255)" d="M0.683454,0.374689 L0.651202,0.422428 L0.734794,0.490117 L0.761302,0.537753 L0.763107,0.580381 L0.746585,0.625236 L0.726849,0.658953 L0.747654,0.670782 L0.761065,0.680187 L0.805527,0.63112 L0.858067,0.579407 L0.904775,0.532013 L0.994892,0.471912 L0.956687,0.396008 L0.964209,0.306233 L0.960633,0.221326 L0.950127,0.11223 L0.955456,0.135308 L0.972469,0.107145 L0.980188,0.090824 L0.984722,0.037104 L0.872107,0.016628 L0.797534,0.021049 L0.731963,0.049272 L0.742617,0.088206 L0.753605,0.117508 L0.755017,0.153734 L0.742521,0.194973 L0.709406,0.224665 L0.676744,0.248583 L0.686463,0.278648 L0.697404,0.326552 L0.683454,0.374689 Z" transform="matrix(512,0,0,-512,0,512)"/>
 <path fill="rgb(244,0,255)" d="M0.825868,0.660136 L0.827738,0.809275 L0.987967,0.805011 L0.98176,0.658148 L0.825868,0.660136 Z" transform="matrix(512,0,0,-512,0,512)"/>
 <path fill="rgb(255,0,200)" d="M0.828217,0.83375 L0.828877,0.984739 L0.98676,0.98666 L0.986436,0.835994 L0.828217,0.83375 Z" transform="matrix(512,0,0,-512,0,512)"/>
 <path fill="rgb(255,0,133)" d="M0.912417,0.632237 L0.913072,0.562878 L0.979515,0.562483 L0.97865,0.632104 L0.912417,0.632237 Z" transform="matrix(512,0,0,-512,0,512)"/>
 <path fill="rgb(255,0,66)" d="M0.912766,0.63188 L0.913912,0.561545 L0.980674,0.563734 L0.978109,0.632707 L0.912766,0.63188 Z" transform="matrix(512,0,0,-512,0,512)"/>
</svg>
